<?xml version="1.0" encoding="utf-8"?>
<svg version="1.1" width="2480" height="797" viewBox="0 0 2480 797"
	xmlns="http://www.w3.org/2000/svg"
	xmlns:xlink="http://www.w3.org/1999/xlink"
	xml:space="preserve">
	<style type="text/css">
		line{
			fill: none;
			stroke: #000;
			stroke-width: 5;
		}
		text{
			font-size: 37px;
			font-family: Liberation Sans, Carlito, Calibri, Segoe UI, Myriad, UnDotum, Optima, Tahoma, Arial, sans-serif;
			text-anchor: middle;
		}
		circle { stroke: #000; fill: #a6a6a6; stroke-width: 2.5; }
		.grey  { stroke: #999; }
		.empty { fill: none; }
		.dash  { stroke-dasharray: 15, 7.9; }
		.dot   { stroke-dasharray: 0, 8.13; stroke-linecap: round; stroke-linejoin: round; }
		.thin  { stroke-width: 2; }
		.serif { font-family: "Liberation Serif", serif; }
		.s26   { font-size: 26px; }
		.s27   { font-size: 27px; }
		.s30   { font-size: 30px; }
	</style>
	<g>
		<circle cx="1240" cy="111" r="88.5" style="fill: none"/>
		<text x="1236" y="126" style="font-size: 44px">start</text>
	</g>
	<g>
		<line x1="1331"   y1="123.5" x2="1837.6" y2="196.1" class="dash"/>
		<line x1="1529.4" y1="326.6" x2="1413.6" y2="417"   class="dot"/>
		<line x1="1833.4" y1="208.4" x2="1568.5" y2="304.3" class="dot"/>
		<line x1="1881.9" y1="207.4" x2="2148.5" y2="302.5" class="dash"/>
		<line x1="1568.5" y1="323.8" x2="1688.5" y2="418.9" class="dash"/>
		<line x1="2188.5" y1="323.8" x2="2307.2" y2="418.5" class="dash"/>
		<line x1="2338.6" y1="451.7" x2="2391"   y2="534.3" class="dash"/>
		<line x1="2409.4" y1="575.5" x2="2430.1" y2="642.2" class="dash"/>
		<line x1="2440.7" y1="686.8" x2="2449.6" y2="737.7" class="dash grey"/>
		<line x1="2374.7" y1="686.8" x2="2383.6" y2="737.7" class="dash grey"/>
		<line x1="2285.7" y1="686.8" x2="2294.6" y2="737.7" class="dash grey"/>
		<line x1="2227.6" y1="737.7" x2="2218.7" y2="686.8" class="dash grey"/>
		<line x1="1769.5" y1="535.7" x2="1717.3" y2="450.8" class="dash"/>
		<line x1="1788.6" y1="574.7" x2="1809.4" y2="642.8" class="dash grey"/>
		<line x1="1633.6" y1="574.7" x2="1654.4" y2="642.8" class="dash"/>
		<line x1="1478.6" y1="574.7" x2="1499.4" y2="642.8" class="dash grey"/>
		<line x1="1943.6" y1="574.7" x2="1964.4" y2="642.8" class="dash"/>
		<line x1="2098.7" y1="574.7" x2="2119.6" y2="642.8" class="dash"/>
		<line x1="2027.3" y1="450.8" x2="2079.5" y2="535.7" class="dash"/>
		<line x1="1322.7" y1="574.7" x2="1343.5" y2="642.8" class="dash"/>
		<line x1="1460.2" y1="534.3" x2="1407.7" y2="451.7" class="dash"/>
		<line x1="2253.7" y1="574.7" x2="2274.6" y2="642.8" class="dash grey"/>
		<line x1="2130.7" y1="686.8" x2="2139.6" y2="737.7" class="dash grey"/>
		<line x1="2072.6" y1="737.7" x2="2063.7" y2="686.8" class="dash grey"/>
		<line x1="1975.7" y1="686.8" x2="1984.6" y2="737.7" class="dash"/>
		<line x1="1909.9" y1="694"   x2="1917.6" y2="737.3" class="dash grey"/>
		<line x1="1821.2" y1="686.8" x2="1830.1" y2="737.7" class="dash grey"/>
		<line x1="1754.2" y1="693.8" x2="1761.5" y2="731.2" class="dash"/>
		<line x1="1666.2" y1="686.8" x2="1675.1" y2="737.7" class="dash"/>
		<line x1="1600"   y1="692.7" x2="1608.1" y2="737.2" class="dash grey"/>
		<line x1="1511.2" y1="686.8" x2="1520.1" y2="737.7" class="dash grey"/>
		<line x1="1445.3" y1="692.7" x2="1453.1" y2="737.7" class="dash grey"/>
		<line x1="1356.2" y1="686.8" x2="1365.1" y2="737.7" class="dash grey"/>
		<line x1="1288.9" y1="693.5" x2="1298.1" y2="737.7" class="dash"/>
		<line x1="1310.9" y1="577.7" x2="1291.7" y2="640.6" class="dot"/>
		<line x1="1465.9" y1="577.7" x2="1446.7" y2="640.6" class="dot"/>
		<line x1="1620.9" y1="577.7" x2="1601.7" y2="640.6" class="dot"/>
		<line x1="1775.9" y1="577.7" x2="1756.7" y2="640.6" class="dot"/>
		<line x1="1930.9" y1="577.7" x2="1911.7" y2="640.6" class="dot"/>
		<line x1="2085.9" y1="577.7" x2="2066.7" y2="640.6" class="dot"/>
		<line x1="2240.9" y1="577.7" x2="2221.7" y2="640.6" class="dot"/>
		<line x1="2395.9" y1="577.7" x2="2376.9" y2="640.6" class="dot"/>
		<line x1="1379.2" y1="456.7" x2="1329.5" y2="535.4" class="dot"/>
		<line x1="1688.7" y1="457.2" x2="1639.5" y2="535.4" class="dot"/>
		<line x1="1999.7" y1="457.2" x2="1950.5" y2="535.4" class="dot"/>
		<line x1="2311.7" y1="453.2" x2="2262.5" y2="531.4" class="dot"/>
		<line x1="2149.7" y1="326.2" x2="2034.2" y2="417.3" class="dot"/>
		<line x1="1280.1" y1="687.8" x2="1270.4" y2="736.9" class="dot grey"/>
		<line x1="1347.1" y1="687.8" x2="1337.4" y2="736.9" class="dot grey"/>
		<line x1="1434.1" y1="687.8" x2="1424.4" y2="736.9" class="dot grey"/>
		<line x1="1501.1" y1="687.8" x2="1491.4" y2="736.9" class="dot grey"/>
		<line x1="1590.1" y1="687.8" x2="1580.4" y2="736.9" class="dot grey"/>
		<line x1="1657.1" y1="687.8" x2="1647.4" y2="736.9" class="dot"/>
		<line x1="1744.1" y1="687.8" x2="1734.4" y2="736.9" class="dot grey"/>
		<line x1="1811.1" y1="687.8" x2="1801.4" y2="736.9" class="dot grey"/>
		<line x1="1900.1" y1="687.8" x2="1890.4" y2="736.9" class="dot grey"/>
		<line x1="1967.1" y1="687.8" x2="1957.4" y2="736.9" class="dot grey"/>
		<line x1="2054.1" y1="687.8" x2="2044.4" y2="736.9" class="dot grey"/>
		<line x1="2121.1" y1="687.8" x2="2111.4" y2="736.9" class="dot grey"/>
		<line x1="2210.1" y1="687.8" x2="2200.4" y2="736.9" class="dot"/>
		<line x1="2276.1" y1="687.8" x2="2267.4" y2="736.9" class="dot grey"/>
		<line x1="2365.1" y1="687.8" x2="2355.4" y2="736.9" class="dot grey"/>
		<line x1="2432.1" y1="687.8" x2="2422.4" y2="736.1" class="dot grey"/>
	</g>
	<g>
		<line x1="1151.3" y1="123.1" x2="640.7"  y2="196.1" class="dot"/>
		<line x1="597.4"  y1="207.8" x2="329.5"  y2="302.7" class="dot"/>
		<line x1="290.8"  y1="325.6" x2="175"    y2="416"   class="dot"/>
		<line x1="909.8"  y1="326.6" x2="794"    y2="417"   class="dot"/>
		<line x1="141.7"  y1="452.6" x2="89.4"   y2="535.3" class="dot"/>
		<line x1="1013.5" y1="574.7" x2="1034.4" y2="642.8" class="dash"/>
		<line x1="857.5"  y1="574.7" x2="878.4"  y2="642.8" class="dash grey"/>
		<line x1="703.5"  y1="574.7" x2="724.4"  y2="642.8" class="dash"/>
		<line x1="548.5"  y1="574.7" x2="569.4"  y2="642.8" class="dash"/>
		<line x1="393.4"  y1="575.1" x2="414.7"  y2="642.8" class="dash grey"/>
		<line x1="237.8"  y1="574.7" x2="258.7"  y2="642.8" class="dash"/>
		<line x1="82.8"   y1="574.7" x2="103.7"  y2="642.8" class="dash"/>
		<line x1="1167.5" y1="574.7" x2="1188.4" y2="642.8" class="dash"/>
		<line x1="838.6"  y1="535.7" x2="786.4"  y2="450.8" class="dash"/>
		<line x1="1148.6" y1="535.7" x2="1096.4" y2="450.8" class="dash"/>
		<line x1="167.5"  y1="451.2" x2="220.2"  y2="535.7" class="dash"/>
		<line x1="530.2"  y1="535.7" x2="478"    y2="450.8" class="dash"/>
		<line x1="948.5"  y1="323.8" x2="1068.5" y2="418.9" class="dash"/>
		<line x1="327.8"  y1="323.8" x2="447.7"  y2="418.9" class="dash"/>
		<line x1="908.7"  y1="302.9" x2="641.8"  y2="207.8" class="dash"/>
		<line x1="451.7"  y1="452.6" x2="399.7"  y2="534.4" class="dot"/>
		<line x1="1201.3" y1="686.8" x2="1210.2" y2="737.7" class="dash grey"/>
		<line x1="1136.1" y1="692"   x2="1144.2" y2="737.7" class="dash grey"/>
		<line x1="1046.3" y1="686.8" x2="1055.2" y2="737.7" class="dash grey"/>
		<line x1="980.1"  y1="693.8" x2="988.2"  y2="737.7" class="dash grey"/>
		<line x1="891.3"  y1="686.8" x2="900.2"  y2="737.7" class="dash grey"/>
		<line x1="824.3"  y1="686.8" x2="833.2"  y2="737.7" class="dash"/>
		<line x1="736.3"  y1="686.8" x2="745.2"  y2="737.7" class="dash grey"/>
		<line x1="669.8"  y1="693.1" x2="678.2"  y2="737.7" class="dash grey"/>
		<line x1="581.8"  y1="686.8" x2="590.7"  y2="737.7" class="dash grey"/>
		<line x1="514.8"  y1="693.8" x2="522.1"  y2="731.2" class="dash"/>
		<line x1="426.8"  y1="686.8" x2="435.7"  y2="737.7" class="dash grey"/>
		<line x1="360.6"  y1="692.7" x2="368.7"  y2="737.2" class="dash grey"/>
		<line x1="271.8"  y1="686.8" x2="280.7"  y2="737.7" class="dash grey"/>
		<line x1="205.9"  y1="692.7" x2="213.7"  y2="737.7" class="dash grey"/>
		<line x1="116.8"  y1="686.8" x2="125.7"  y2="737.7" class="dash grey"/>
		<line x1="49.5"   y1="693.5" x2="58.7"   y2="737.7" class="dash grey"/>
		<line x1="70.1"   y1="577.1" x2="51"     y2="643.9" class="dot"/>
		<line x1="225.9"  y1="577.7" x2="206.7"  y2="640.6" class="dot"/>
		<line x1="380.9"  y1="577.7" x2="361.7"  y2="640.6" class="dot"/>
		<line x1="535.9"  y1="577.7" x2="516.7"  y2="640.6" class="dot"/>
		<line x1="690.9"  y1="577.7" x2="671.7"  y2="640.6" class="dot grey"/>
		<line x1="845.9"  y1="577.7" x2="826.7"  y2="640.6" class="dot"/>
		<line x1="1000.9" y1="577.7" x2="981.7"  y2="640.6" class="dot"/>
		<line x1="1156.9" y1="577.7" x2="1137.7" y2="640.6" class="dot"/>
		<line x1="1069.2" y1="456.7" x2="1019.5" y2="535.4" class="dot"/>
		<line x1="710.7"  y1="533.4" x2="763.3"  y2="450"   class="dot"/>
		<line x1="40.1"   y1="687.8" x2="30.4"   y2="736.9" class="dot grey"/>
		<line x1="107.1"  y1="687.8" x2="97.4"   y2="736.9" class="dot grey"/>
		<line x1="194.1"  y1="687.8" x2="184.4"  y2="736.9" class="dot grey"/>
		<line x1="261.1"  y1="687.8" x2="251.9"  y2="736.7" class="dot grey"/>
		<line x1="350.1"  y1="687.8" x2="340.4"  y2="736.9" class="dot grey"/>
		<line x1="417.1"  y1="687.8" x2="407.4"  y2="736.9" class="dot grey"/>
		<line x1="504.1"  y1="687.8" x2="494.4"  y2="736.9" class="dot"/>
		<line x1="571.1"  y1="687.8" x2="561.4"  y2="736.9" class="dot grey"/>
		<line x1="660.1"  y1="687.8" x2="650.4"  y2="736.9" class="dot grey"/>
		<line x1="727.1"  y1="687.8" x2="717.4"  y2="736.9" class="dot"/>
		<line x1="814.1"  y1="687.8" x2="804.4"  y2="736.9" class="dot grey"/>
		<line x1="881.1"  y1="687.8" x2="871.4"  y2="736.9" class="dot grey"/>
		<line x1="970.1"  y1="687.8" x2="960.4"  y2="736.9" class="dot grey"/>
		<line x1="1036.1" y1="687.8" x2="1027.4" y2="736.9" class="dot"/>
		<line x1="1125.1" y1="687.8" x2="1115.4" y2="736.9" class="dot grey"/>
		<line x1="1192.1" y1="687.8" x2="1182.4" y2="736.1" class="dot"/>
	</g>
	<g>
		<g>
			<g><circle cx="620.2"  cy="199.2" r="22.2"/><text x="621"  y="211">E</text></g>
			<g><circle cx="1861.2" cy="199.2" r="22.2"/><text x="1861" y="212">T</text></g>
		</g>
		<g>
			<g><circle cx="309.5"  cy="308.7" r="22.2"/><text x="311"  y="321.0793">I</text></g>
			<g><circle cx="930.2"  cy="310.2" r="22.2"/><text x="932"  y="322.6548">A</text></g>
			<g><circle cx="1550.2" cy="310.2" r="22.2"/><text x="1551" y="322.6548">N</text></g>
			<g><circle cx="2170.2" cy="309.2" r="22.2"/><text x="2171" y="321.6548">M</text></g>
		</g>
		<g>
			<g><circle cx="155.2"  cy="432.2" r="22.2"/><text x="156"  y="444.6548">S</text></g>
			<g><circle cx="465.2"  cy="432.2" r="22.2"/><text x="465"  y="444.6548">U</text></g>
			<g><circle cx="775.2"  cy="432.2" r="22.2"/><text x="776"  y="444.6548">R</text></g>
			<g><circle cx="1085.2" cy="432.2" r="22.2"/><text x="1085" y="444.6548">W</text></g>
			<g><circle cx="1395.2" cy="432.2" r="22.2"/><text x="1396" y="444.6548">D</text></g>
			<g><circle cx="1705.2" cy="432.2" r="22.2"/><text x="1706" y="444.6548">K</text></g>
			<g><circle cx="2015.2" cy="432.2" r="22.2"/><text x="2016" y="444.6548">G</text></g>
			<g><circle cx="2325.2" cy="432.2" r="22.2"/><text x="2325" y="444.6548">O</text></g>
		</g>
		<g>
			<g><circle cx="77.2"   cy="553.2" r="22.2"/><text x="78"   y="565.6548">H</text></g>
			<g><circle cx="232.2"  cy="553.2" r="22.2"/><text x="232"  y="565.6548">V</text></g>
			<g><circle cx="387.2"  cy="553.2" r="22.2"/><text x="386"  y="565.6548">F</text></g>
			<g><circle cx="542.2"  cy="553.2" r="22.2"/><text x="542"  y="569">Ü</text></g>
			<g><circle cx="697.2"  cy="553.2" r="22.2"/><text x="699"  y="565.6548">L</text></g>
			<g><circle cx="852.2"  cy="553.2" r="22.2"/><text x="853"  y="567">Ä</text></g>
			<g><circle cx="1007.2" cy="553.2" r="22.2"/><text x="1007" y="565.6548">P</text></g>
			<g><circle cx="1162.2" cy="553.2" r="22.2"/><text x="1162" y="565.6548">J</text></g>
			<g><circle cx="1317.7" cy="553.3" r="22.3"/><text x="1319" y="565.6548">B</text></g>
			<g><circle cx="1472.7" cy="553.3" r="22.3"/><text x="1472" y="565.6548">X</text></g>
			<g><circle cx="1627.7" cy="553.3" r="22.3"/><text x="1626" y="565.6548">C</text></g>
			<g><circle cx="1782.7" cy="553.3" r="22.3"/><text x="1782" y="565.6548">Y</text></g>
			<g><circle cx="1937.7" cy="553.3" r="22.3"/><text x="1938" y="565.6548">Z</text></g>
			<g><circle cx="2092.7" cy="553.3" r="22.3"/><text x="2093" y="565.6548">Q</text></g>
			<g><circle cx="2247.7" cy="553.3" r="22.3"/><text x="2248" y="568">Ö</text></g>
			<g><circle cx="2402.7" cy="553.3" r="22.3"/><text x="2403" y="562" class="s26">CH</text></g>
		</g>
		<g>
			<g><circle cx="44.2"   cy="664.2" r="22.2"/><text x="44"   y="677">5</text></g>
			<g><circle cx="110.2"  cy="664.2" r="22.2"/><text x="110"  y="677">4</text></g>
			<g><circle cx="199.2"  cy="664.2" r="22.2"/><text x="200"  y="680">Ŝ</text></g>
			<g><circle cx="265.2"  cy="664.2" r="22.2"/><text x="266"  y="677">3</text></g>
			<g><circle cx="354.2"  cy="664.2" r="22.2"/><text x="355"  y="679">É</text></g>
			<g><circle cx="421.2"  cy="664.2" r="22.2" class="empty grey"/></g>
			<g><circle cx="509.2"  cy="664.2" r="22.2"/><text x="511"  y="677">Ð</text></g>
			<g><circle cx="576.2"  cy="664.2" r="22.2"/><text x="577"  y="676">2</text></g>
			<g><circle cx="664.2"  cy="664.2" r="22.2" class="empty grey"/></g>
			<g><circle cx="731.2"  cy="664.2" r="22.2"/><text x="732"  y="679">È</text></g>
			<g><circle cx="819.2"  cy="664.2" r="22.2"/><text x="819"  y="674">+</text></g>
			<g><circle cx="886.2"  cy="664.2" r="22.2" class="empty grey"/></g>
			<g><circle cx="974.2"  cy="664.2" r="22.2"/><text x="974"  y="677">Þ</text></g>
			<g><circle cx="1041.2" cy="664.2" r="22.2"/><text x="1043" y="677">À</text></g>
			<g><circle cx="1129.2" cy="664.2" r="22.2"/><text x="1129" y="677" class="s30">Ĵ</text></g>
			<g><circle cx="1196.2" cy="664.2" r="22.2"/><text x="1197" y="677">1</text></g>
			<g><circle cx="1284.2" cy="664.2" r="22.2"/><text x="1283" y="677">6</text></g>
			<g><circle cx="1351.2" cy="664.2" r="22.2"/><text x="1352" y="675">=</text></g>
			<g><circle cx="1439.2" cy="664.2" r="22.2"/><text x="1440" y="677">/</text></g>
			<g><circle cx="1506.2" cy="664.2" r="22.2" class="empty grey"/></g>
			<g><circle cx="1594.2" cy="664.2" r="22.2"/><text x="1595" y="674.6548">Ç</text></g>
			<g><circle cx="1661.2" cy="664.2" r="22.2" class="empty"/></g>
			<g><circle cx="1749.2" cy="664.2" r="22.2"/><text x="1750" y="678">Ĥ</text></g>
			<g><circle cx="1816.2" cy="664.2" r="22.2" class="empty grey"/></g>
			<g><circle cx="1904.2" cy="664.2" r="22.2"/><text x="1904" y="677">7</text></g>
			<g><circle cx="1971.2" cy="664.2" r="22.2" class="empty"/></g>
			<g><circle cx="2059.1" cy="664.3" r="22.2"/><text x="2059" y="679">Ĝ</text></g>
			<g><circle cx="2126.1" cy="664.3" r="22.2"/><text x="2127" y="678.6548">Ñ</text></g>
			<g><circle cx="2214.1" cy="664.3" r="22.2"/><text x="2215" y="676.6548">8</text></g>
			<g><circle cx="2281.1" cy="664.3" r="22.2" class="empty grey"/></g>
			<g><circle cx="2369.1" cy="664.3" r="22.2"/><text x="2370" y="676.6548">9</text></g>
			<g><circle cx="2436.1" cy="664.3" r="22.2"/><text x="2437" y="676.6548">0</text></g>
		</g>
		<g>
			<circle class="thin grey empty" cx="27.5"   cy="753" r="16.5"/>
			<circle class="thin grey empty" cx="61"     cy="753" r="16.5"/>
			<circle class="thin grey empty" cx="94.5"   cy="753" r="16.5"/>
			<circle class="thin grey empty" cx="128"    cy="753" r="16.5"/>
			<circle class="thin grey empty" cx="182.5"  cy="753" r="16.5"/>
			<circle class="thin grey empty" cx="216"    cy="753" r="16.5"/>
			<circle class="thin grey empty" cx="249.5"  cy="753" r="16.5"/>
			<circle class="thin grey empty" cx="283"    cy="753" r="16.5"/>
			<circle class="thin grey empty" cx="337.5"  cy="753" r="16.5"/>
			<circle class="thin grey empty" cx="371"    cy="753" r="16.5"/>
			<circle class="thin grey empty" cx="404.5"  cy="753" r="16.5"/>
			<circle class="thin grey empty" cx="438"    cy="753" r="16.5"/>
			<g><circle class="thin" cx="492"  cy="753.1" r="16.5"/><text x="492"  y="766" class="serif">?</text></g>
			<g><circle class="thin" cx="526"  cy="753.1" r="16.5"/><text x="526"  y="760" class="serif">_</text></g>
			<circle class="thin grey empty" cx="559.5"  cy="753" r="16.5"/>
			<circle class="thin grey empty" cx="593"    cy="753" r="16.5"/>
			<circle class="thin grey empty" cx="647"    cy="753" r="16.5"/>
			<circle class="thin grey empty" cx="680.5"  cy="753" r="16.5"/>
			<g><circle class="thin" cx="714"  cy="753.1" r="16.5"/><text x="713"  y="767" class="serif">“</text></g>
			<circle class="thin grey empty" cx="747.5"  cy="753" r="16.5"/>
			<circle class="thin grey empty" cx="802"    cy="753" r="16.5"/>
			<g><circle class="thin" cx="835"  cy="753.1" r="16.5"/><text x="835"  y="761" class="serif">.</text></g>
			<circle class="thin grey empty" cx="869"    cy="753" r="16.5"/>
			<circle class="thin grey empty" cx="902.5"  cy="753" r="16.5"/>
			<circle class="thin grey empty" cx="957"    cy="753" r="16.5"/>
			<circle class="thin grey empty" cx="990.5"  cy="753" r="16.5"/>
			<g><circle class="thin" cx="1024" cy="753.1" r="16.5"/><text x="1024" y="760" class="serif s26">@</text></g>
			<circle class="thin grey empty" cx="1057.5" cy="753" r="16.5"/>
			<circle class="thin grey empty" cx="1112"   cy="753" r="16.5"/>
			<circle class="thin grey empty" cx="1145.5" cy="753" r="16.5"/>
			<g><circle class="thin" cx="1179" cy="753.1" r="16.5"/><text x="1179" y="762" class="serif s27">‘</text></g>
			<circle class="thin grey empty" cx="1212.5" cy="753" r="16.5"/>
			<circle class="thin grey empty" cx="1267.5" cy="753" r="16.5"/>
			<g><circle class="thin" cx="1301" cy="753.1" r="16.5"/><text x="1301" y="761" class="serif s27">-</text></g>
			<circle class="thin grey empty" cx="1334.5" cy="753" r="16.5"/>
			<circle class="thin grey empty" cx="1368"   cy="753" r="16.5"/>
			<circle class="thin grey empty" cx="1422.5" cy="753" r="16.5"/>
			<circle class="thin grey empty" cx="1456"   cy="753" r="16.5"/>
			<circle class="thin grey empty" cx="1489.5" cy="753" r="16.5"/>
			<circle class="thin grey empty" cx="1523"   cy="753" r="16.5"/>
			<circle class="thin grey empty" cx="1577.5" cy="753" r="16.5"/>
			<circle class="thin grey empty" cx="1611"   cy="753" r="16.5"/>
			<g><circle class="thin" cx="1644" cy="753.1" r="16.5"/><text x="1644" y="759" class="serif s30">;</text></g>
			<g><circle class="thin" cx="1678" cy="753.1" r="16.5"/><text x="1678" y="762" class="serif s27">!</text></g>
			<circle class="thin grey empty" cx="1732.5" cy="753" r="16.5"/>
			<g><circle class="thin" cx="1766" cy="753.1" r="16.5"/><text x="1767" y="760" class="serif s26">( )</text></g>
			<circle class="thin grey empty" cx="1799.5" cy="753" r="16.5"/>
			<circle class="thin grey empty" cx="1833"   cy="753" r="16.5"/>
			<circle class="thin grey empty" cx="1887.5" cy="753" r="16.5"/>
			<circle class="thin grey empty" cx="1921"   cy="753" r="16.5"/>
			<circle class="thin grey empty" cx="1954.5" cy="753" r="16.5"/>
			<g><circle class="thin" cx="1988" cy="753.1" r="16.5"/><text x="1988" y="758" class="serif s27">,</text></g>
			<circle class="thin grey empty" cx="2042"   cy="753" r="16.5"/>
			<circle class="thin grey empty" cx="2075.5" cy="753" r="16.5"/>
			<circle class="thin grey empty" cx="2109"   cy="753" r="16.5"/>
			<circle class="thin grey empty" cx="2142.5" cy="753" r="16.5"/>
			<g><circle class="thin" cx="2197" cy="753.1" r="16.5"/><text x="2197" y="760" class="serif s27">:</text></g>
			<circle class="thin grey empty" cx="2230.5" cy="753" r="16.5"/>
			<circle class="thin grey empty" cx="2264"   cy="753" r="16.5"/>
			<circle class="thin grey empty" cx="2297.5" cy="753" r="16.5"/>
			<circle class="thin grey empty" cx="2352"   cy="753" r="16.5"/>
			<circle class="thin grey empty" cx="2385.5" cy="753" r="16.5"/>
			<circle class="thin grey empty" cx="2419"   cy="753" r="16.5"/>
			<circle class="thin grey empty" cx="2452.5" cy="753" r="16.5"/>
		</g>
	</g>
</svg>
